<?xml version="1.0" standalone="no"?>
<!DOCTYPE svg PUBLIC "-//W3C//DTD SVG 20010904//EN"
 "http://www.w3.org/TR/2001/REC-SVG-20010904/DTD/svg10.dtd">
<svg version="1.0" xmlns="http://www.w3.org/2000/svg"
 width="512.000000pt" height="512.000000pt" viewBox="0 0 512.000000 512.000000"
 preserveAspectRatio="xMidYMid meet">
<metadata>
Created by potrace 1.11, written by Peter Selinger 2001-2013
</metadata>
<g transform="translate(0.000000,512.000000) scale(0.100000,-0.100000)"
fill="#000000" stroke="none">
<path d="M1965 4945 c-194 -51 -339 -214 -361 -407 l-6 -57 -189 -3 c-205 -3
-214 -6 -263 -72 -20 -26 -21 -40 -21 -326 0 -286 1 -300 21 -326 11 -15 33
-37 48 -48 27 -21 34 -21 886 -21 852 0 859 0 886 21 15 11 37 33 48 48 20 26
21 40 21 326 0 287 -1 300 -21 327 -11 15 -35 38 -53 50 -29 20 -44 21 -213
23 -100 0 -183 2 -184 3 -1 1 -5 25 -8 52 -20 158 -112 293 -250 366 -104 56
-232 72 -341 44z m208 -318 c70 -39 102 -149 65 -221 -46 -91 -143 -124 -234
-81 -85 41 -122 138 -84 223 45 100 154 134 253 79z"/>
<path d="M540 4303 c-84 -29 -151 -89 -191 -171 l-24 -47 0 -1765 0 -1765 25
-50 c31 -64 91 -124 155 -155 l50 -25 1525 0 1525 0 50 25 c64 31 124 91 155
155 l25 50 3 775 2 775 -160 -160 -160 -160 0 -476 c0 -449 -1 -477 -18 -493
-17 -15 -125 -16 -1431 -14 -1242 3 -1413 5 -1421 18 -6 9 -9 574 -7 1508 2
1314 4 1494 17 1502 8 5 79 10 158 10 l142 0 0 240 0 240 -187 -1 c-143 0
-199 -4 -233 -16z"/>
<path d="M3200 4080 l0 -240 143 0 c127 0 146 -2 160 -18 15 -16 17 -49 17
-253 l0 -234 160 160 160 160 0 190 c0 213 -10 267 -58 337 -39 57 -89 95
-155 118 -43 15 -85 19 -239 20 l-188 1 0 -241z"/>
<path d="M4513 3993 c-12 -2 -73 -55 -136 -117 l-113 -112 85 -54 c109 -71
242 -202 315 -312 32 -49 59 -88 61 -88 8 0 185 179 208 210 39 54 32 116 -24
207 -37 60 -140 183 -154 183 -2 0 -33 19 -70 41 -65 41 -118 54 -172 42z"/>
<path d="M3250 2751 c-705 -705 -880 -886 -899 -926 -13 -28 -40 -88 -61 -135
-21 -47 -48 -107 -60 -135 -165 -365 -165 -365 -131 -403 30 -36 70 -37 137
-7 32 15 95 43 139 62 79 35 136 60 225 101 25 11 86 38 136 60 l92 41 885
884 886 885 -62 93 c-63 95 -191 232 -246 265 -17 10 -31 22 -31 26 0 4 -4 8
-9 8 -6 0 -30 14 -54 30 -25 17 -51 30 -58 29 -8 0 -408 -395 -889 -878z
m-692 -1025 c26 -13 61 -39 78 -58 33 -34 74 -107 74 -131 0 -14 -108 -67
-140 -68 -3 -1 -10 -5 -15 -9 -6 -5 -49 -25 -95 -45 -82 -35 -84 -35 -102 -17
-18 18 -17 23 53 185 44 104 77 167 85 167 8 0 36 -11 62 -24z"/>
<path d="M984 3333 l-25 -27 3 -274 3 -274 24 -19 c23 -19 39 -20 298 -17
l274 3 20 25 c18 24 19 41 17 298 l-3 274 -24 19 c-22 18 -42 19 -293 19
l-269 0 -25 -27z m456 -293 l0 -160 -160 0 -160 0 0 160 0 160 160 0 160 0 0
-160z"/>
<path d="M1926 3184 c-11 -28 -6 -120 6 -132 17 -17 1239 -17 1256 0 7 7 12
37 12 68 0 31 -5 61 -12 68 -9 9 -164 12 -634 12 -558 0 -622 -2 -628 -16z"/>
<path d="M1933 2873 c-17 -6 -17 -125 -1 -141 9 -9 132 -12 493 -12 l480 0 80
80 80 80 -560 -1 c-308 0 -566 -3 -572 -6z"/>
<path d="M986 2536 l-27 -26 3 -276 3 -276 24 -19 c22 -18 42 -19 293 -19
l269 0 24 26 25 27 0 267 c0 249 -1 269 -19 291 l-19 24 -274 3 -274 3 -28
-25z m454 -296 l0 -160 -160 0 -160 0 0 160 0 160 160 0 160 0 0 -160z"/>
<path d="M1932 2548 c-7 -7 -12 -37 -12 -68 0 -31 5 -61 12 -68 9 -9 97 -12
333 -12 l320 0 80 80 80 80 -401 0 c-298 0 -403 -3 -412 -12z"/>
<path d="M1932 2228 c-7 -7 -12 -37 -12 -68 0 -31 5 -61 12 -68 8 -8 61 -12
173 -12 l160 0 80 80 80 80 -241 0 c-173 0 -243 -3 -252 -12z"/>
<path d="M987 1736 l-27 -25 0 -269 c0 -251 1 -271 19 -293 l19 -24 274 -3
274 -3 27 25 27 25 0 269 c0 251 -1 271 -19 293 l-19 24 -274 3 -274 3 -27
-25z m453 -296 l0 -160 -160 0 -160 0 0 160 0 160 160 0 160 0 0 -160z"/>
</g>
</svg>
