<?xml version="1.0" standalone="no"?>
<!DOCTYPE svg PUBLIC "-//W3C//DTD SVG 20010904//EN"
 "http://www.w3.org/TR/2001/REC-SVG-20010904/DTD/svg10.dtd">
<svg version="1.0" xmlns="http://www.w3.org/2000/svg"
 width="700.000000pt" height="700.000000pt" viewBox="0 0 700.000000 700.000000"
 preserveAspectRatio="xMidYMid meet">
<metadata>
Created by potrace 1.11, written by Peter Selinger 2001-2013
</metadata>
<g transform="translate(0.000000,700.000000) scale(0.100000,-0.100000)"
fill="#000000" stroke="none">
<path d="M779 6996 c-2 -2 -26 -7 -53 -10 -27 -4 -52 -9 -56 -11 -4 -2 -17 -6
-31 -9 -115 -24 -257 -106 -368 -210 -128 -122 -199 -250 -258 -465 -4 -14 -9
-1257 -10 -2761 -2 -2433 -1 -2744 13 -2815 17 -85 68 -230 90 -256 8 -8 14
-19 14 -24 0 -17 91 -133 146 -187 108 -104 232 -174 389 -220 l80 -23 2770 0
2770 0 88 28 c247 77 432 230 541 447 32 63 61 140 72 191 2 13 9 44 14 69 6
27 8 1134 7 2790 l-2 2745 -28 89 c-102 325 -324 531 -672 623 -30 7 -5508 17
-5516 9z"/>
</g>
</svg>
